<svg xmlns="http://www.w3.org/2000/svg" width="38.049" height="38.049" viewBox="0 0 38.049 38.049"><defs><style>.a{fill:none;}</style></defs><path class="a" d="M0,0H38.049V38.049H0Z"/><path d="M24.988,3a9.494,9.494,0,0,0-7.134,3.313A9.494,9.494,0,0,0,10.72,3,8.635,8.635,0,0,0,2,11.72c0,5.993,5.39,10.876,13.555,18.3l2.3,2.077L20.152,30c8.165-7.4,13.555-12.287,13.555-18.279A8.635,8.635,0,0,0,24.988,3ZM18.012,27.652l-.159.159-.159-.159C10.149,20.82,5.171,16.3,5.171,11.72A5.418,5.418,0,0,1,10.72,6.171a6.2,6.2,0,0,1,5.66,3.741h2.965a6.159,6.159,0,0,1,5.644-3.741,5.418,5.418,0,0,1,5.549,5.549C30.537,16.3,25.559,20.82,18.012,27.652Z" transform="translate(1.171 1.756)"/></svg>