<svg xmlns="http://www.w3.org/2000/svg" viewBox="0 0 549 680.45"><defs><style>.cls-1{fill:#7fa838;}.cls-2{fill:#b1f743;}.cls-3{fill:#fff;}.cls-4{opacity:0.2;}</style></defs><title>Asset 1</title><g id="Layer_2" data-name="Layer 2"><g id="Layer_1-2" data-name="Layer 1"><path class="cls-1" d="M162.5,583.5v68s20,27,44,0v-68"/><path class="cls-1" d="M313.5,583.5v68s20,27,44,0v-68"/><path class="cls-1" d="M399,151s67-48,55-86l40,17s-54,119-73,98"/><path class="cls-1" d="M146,151S79,103,91,65L51,82s54,119,73,98"/><path class="cls-2" d="M522.5,358.59c0,61.32.79,160.28-31.57,204.82C447.24,623.55,345.65,619.52,270,619.52c-79.75,0-184-1.55-227.27-67.33C14.5,509.32,17.46,415.44,17.46,358.59,17.46,214.48,138.27,97.65,270,97.65S522.5,214.48,522.5,358.59Z"/><circle class="cls-2" cx="65" cy="65" r="65"/><circle class="cls-2" cx="484" cy="65" r="65"/><circle class="cls-3" cx="484" cy="65" r="56"/><circle class="cls-3" cx="65" cy="65" r="56"/><circle cx="65" cy="72" r="37.5"/><circle class="cls-3" cx="73.5" cy="65.5" r="16"/><circle class="cls-3" cx="54.5" cy="91.5" r="10"/><circle cx="479" cy="72" r="37.5"/><circle class="cls-3" cx="470.5" cy="65.5" r="16"/><circle class="cls-3" cx="489.5" cy="91.5" r="10"/><path class="cls-4" d="M253.14,337.53s21.24,34.22,50,7.34,67.49-2.45,53.74,9.77c0,0-11.24,29.33,12.5,25.66s26.25,28.11,17.5,39.11-18.75,7.33-16.25,29.33,5,40.33-7.5,40.33-25-11-30,2.44-30,48.88-46.25,42.77-37.49-37.88-43.74-28.11-22.5,22-31.25,17.11-1.25-56.21-11.25-52.54c0,0-50-2.45-38.74-20.78s6.25-40.33-11.25-41.55c0,0-35-7.33,21.25-40.33,0,0,26.24-44,37.49-39.1s23.75,9.77,36.25-4.89,11.25,37.88,32.49,34.22-10,29.33-10,29.33"/><path d="M214.64,385.5H325.58A17.63,17.63,0,0,1,341.83,410c-20.45,48.14-73.53,139-142.91,1.13A17.64,17.64,0,0,1,214.64,385.5Z"/><path class="cls-3" d="M288.33,385.5s.17,14,14.17,14c0,0,9,1,11-14Z"/><path class="cls-3" d="M257.33,385.5s.17,14,14.17,14c0,0,9,1,11-14Z"/><path class="cls-3" d="M219.33,385.5s.17,14,14.17,14c0,0,9,1,11-14Z"/><path class="cls-3" d="M239.78,469.76s7.72-10.26,15.72-7.26,1.83,18.62,1.83,18.62S241.06,474,239.78,469.76Z"/><path class="cls-3" d="M286.9,481.12s12.78-5.95,14.69-9.29c0,0-8.09-9.33-14.09-5.33S286.9,481.12,286.9,481.12Z"/><path class="cls-1" d="M228.54,101.5s56.17,49,89.07,0C317.61,101.5,258.57,93.5,228.54,101.5Z"/><path class="cls-1" d="M247.82,98.78S220.5,68.5,230.5,54.5s36,7,43,42,0,14,0,14l-9-21s19-65,34-48-1,48-13,62"/><path class="cls-1" d="M165.16,647.62l-9.88,9.76a6.85,6.85,0,0,0,1.15,10.69c10.83,6.71,33,16.23,57,1.94a6.88,6.88,0,0,0,1.44-10.63c-5.2-5.49-12.14-13.3-12.14-15.88"/><path class="cls-1" d="M315.49,650.62l-10.16,9.76a6.74,6.74,0,0,0,1.19,10.69c11.12,6.71,33.89,16.23,58.56,1.94a6.77,6.77,0,0,0,1.48-10.63c-5.34-5.49-12.47-13.3-12.47-15.88"/></g></g></svg>