<svg width="181" height="38" viewBox="0 0 181 38" fill="none" xmlns="http://www.w3.org/2000/svg">
<g clip-path="url(#clip0)">
<path d="M33.5198 7.0977L26.7111 18.9818H26.8195L33.6282 30.8477C36.1928 27.6082 37.7279 23.4952 37.7279 19.0364C37.7098 14.5048 36.1386 10.3554 33.5198 7.0977Z" fill="url(#paint0_linear)"/>
<path d="M10.9987 18.9818H10.8903L4.1358 7.1705C1.55318 10.4282 0 14.5412 0 19.0364C0 23.5316 1.55318 27.681 4.15386 30.9387L10.9987 18.9818Z" fill="url(#paint1_linear)"/>
<path d="M18.4395 0C13.9606 0 9.82477 1.58333 6.59198 4.22222L18.3853 11.0833V10.9741L30.1606 4.11303C26.9459 1.54694 22.8823 0 18.4395 0Z" fill="url(#paint2_linear)"/>
<path d="M18.3854 26.9167V27.0259L6.66425 33.8506C9.89703 36.4531 13.9787 38.0182 18.4395 38.0182C22.9004 38.0182 27.0182 36.4531 30.251 33.8324L18.3854 26.9167Z" fill="url(#paint3_linear)"/>
<path d="M18.9633 3.51245C27.1265 3.51245 33.7366 10.1734 33.7366 18.3994C33.7366 26.6255 27.1265 33.2864 18.9633 33.2864C10.8001 33.2864 4.19 26.6255 4.19 18.3994C4.19 10.1734 10.8001 3.51245 18.9633 3.51245Z" fill="url(#paint4_linear)"/>
<path d="M70.3086 32.3946H63.5721L62.5427 28.2998H54.1266L53.1333 32.3946H46.4329L52.0677 10.6647H50.3881L51.4537 4.659H63.0303L70.3086 32.3946ZM61.0798 22.2941L58.3708 11.2471L55.6256 22.2941H61.0798Z" fill="#BF35D3"/>
<path d="M88.8384 7.97125C89.4164 7.97125 89.9582 8.08045 90.4639 8.29884C90.9695 8.51723 91.403 8.82662 91.7823 9.2088C92.1435 9.59098 92.4505 10.046 92.6672 10.5555C92.8839 11.0651 92.9923 11.6111 92.9923 12.1935V20.5469C92.9923 21.1293 92.8839 21.6753 92.6672 22.1849C92.4505 22.6944 92.1615 23.1312 91.7823 23.5134C91.403 23.8956 90.9695 24.1868 90.4639 24.4052C89.9582 24.6236 89.4164 24.7327 88.8384 24.7327H80.1334V32.3946H73.3608L73.3247 13.977H71.5547L72.6564 7.97125H88.8384ZM86.2016 13.977H80.0792V18.818H86.2016V13.977Z" fill="#BF35D3"/>
<path d="M111.432 8.00766C112.01 8.00766 112.552 8.11686 113.057 8.33525C113.563 8.55364 114.014 8.84482 114.394 9.22701C114.773 9.59099 115.08 10.046 115.297 10.5556C115.513 11.0651 115.622 11.6111 115.622 12.1935V28.1724C115.622 28.7548 115.513 29.3008 115.297 29.8285C115.08 30.3563 114.773 30.7931 114.394 31.1753C114.014 31.5393 113.563 31.8487 113.057 32.067C112.552 32.2854 112.01 32.3946 111.432 32.3946H100.036C99.4579 32.3946 98.9161 32.2854 98.4104 32.067C97.9047 31.8487 97.4713 31.5575 97.092 31.1753C96.7308 30.8113 96.4238 30.3563 96.207 29.8285C95.9903 29.3008 95.882 28.7548 95.882 28.1724V12.1935C95.882 11.6111 95.9903 11.0651 96.207 10.5556C96.4238 10.046 96.7127 9.60919 97.092 9.22701C97.4532 8.86302 97.9047 8.55364 98.4104 8.33525C98.9161 8.11686 99.4579 8.00766 100.036 8.00766H111.432ZM108.831 14.0134H102.673V26.4799H108.831V14.0134Z" fill="#BF35D3"/>
<path d="M137.673 26.3889L136.608 32.3946H119.017V7.97125H125.79V26.3889H137.673Z" fill="#BF35D3"/>
<path d="M158.912 26.3889L157.847 32.3946H140.274V7.97125H147.047V26.3889H158.912Z" fill="#BF35D3"/>
<path d="M176.828 8.00766C177.406 8.00766 177.948 8.11686 178.453 8.33525C178.959 8.55364 179.411 8.84482 179.79 9.22701C180.169 9.59099 180.476 10.046 180.693 10.5556C180.91 11.0651 181.018 11.6111 181.018 12.1935V28.1724C181.018 28.7548 180.91 29.3008 180.693 29.8285C180.476 30.3563 180.169 30.7931 179.79 31.1753C179.411 31.5393 178.959 31.8487 178.453 32.067C177.948 32.2854 177.406 32.3946 176.828 32.3946H165.432C164.854 32.3946 164.312 32.2854 163.807 32.067C163.301 31.8487 162.868 31.5575 162.488 31.1753C162.127 30.8113 161.82 30.3563 161.603 29.8285C161.387 29.3008 161.278 28.7548 161.278 28.1724V12.1935C161.278 11.6111 161.387 11.0651 161.603 10.5556C161.82 10.046 162.109 9.60919 162.488 9.22701C162.849 8.86302 163.301 8.55364 163.807 8.33525C164.312 8.11686 164.854 8.00766 165.432 8.00766H176.828ZM174.227 14.0134H168.069V26.4799H174.227V14.0134Z" fill="#BF35D3"/>
</g>
<defs>
<linearGradient id="paint0_linear" x1="32.2068" y1="30.8521" x2="32.2068" y2="7.09057" gradientUnits="userSpaceOnUse">
<stop stop-color="#FF3BFF"/>
<stop offset="1" stop-color="#2B1DE3"/>
</linearGradient>
<linearGradient id="paint1_linear" x1="5.50161" y1="30.9313" x2="5.50161" y2="7.16977" gradientUnits="userSpaceOnUse">
<stop stop-color="#FF3BFF"/>
<stop offset="1" stop-color="#2B1DE3"/>
</linearGradient>
<linearGradient id="paint2_linear" x1="18.3816" y1="11.0879" x2="18.3816" y2="0" gradientUnits="userSpaceOnUse">
<stop stop-color="#FF3BFF"/>
<stop offset="1" stop-color="#2B1DE3"/>
</linearGradient>
<linearGradient id="paint3_linear" x1="18.4602" y1="26.9107" x2="18.4602" y2="37.9986" gradientUnits="userSpaceOnUse">
<stop stop-color="#FF3BFF"/>
<stop offset="1" stop-color="#2B1DE3"/>
</linearGradient>
<linearGradient id="paint4_linear" x1="18.9575" y1="33.282" x2="18.9575" y2="3.50765" gradientUnits="userSpaceOnUse">
<stop stop-color="#FF3BFF"/>
<stop offset="1" stop-color="#9F1DE3"/>
</linearGradient>
<clipPath id="clip0">
<rect width="181" height="38" fill="white"/>
</clipPath>
</defs>
</svg>
