<svg width="405" height="85" viewBox="0 0 405 85" fill="none" xmlns="http://www.w3.org/2000/svg">
<g clip-path="url(#clip0)">
<path d="M75.0444 15.8764L59.8144 42.4593H60.0568L75.2868 69.0014C81.0233 61.7553 84.4571 52.5551 84.4571 42.5814C84.4167 32.4449 80.9021 23.1633 75.0444 15.8764Z" fill="url(#paint0_linear)"/>
<path d="M24.6682 42.4593H24.4258L9.31693 16.0393C3.54002 23.3262 0.0657959 32.5263 0.0657959 42.5814C0.0657959 52.6365 3.54002 61.9181 9.35733 69.205L24.6682 42.4593Z" fill="url(#paint1_linear)"/>
<path d="M41.3121 0C31.2934 0 22.0423 3.54167 14.811 9.44445L41.1909 24.7917V24.5474L67.5304 9.20019C60.3395 3.46025 51.25 0 41.3121 0Z" fill="url(#paint2_linear)"/>
<path d="M41.1909 60.2083V60.4526L14.9727 75.7184C22.2039 81.5398 31.3338 85.0407 41.3121 85.0407C51.2904 85.0407 60.5012 81.5398 67.7324 75.6777L41.1909 60.2083Z" fill="url(#paint3_linear)"/>
<path d="M42.4837 7.8568C60.7436 7.8568 75.5292 22.7562 75.5292 41.1566C75.5292 59.557 60.7436 74.4564 42.4837 74.4564C24.2238 74.4564 9.43814 59.557 9.43814 41.1566C9.43814 22.7562 24.2238 7.8568 42.4837 7.8568Z" fill="url(#paint4_linear)"/>
<path d="M157.335 72.4617H142.267L139.964 63.3022H121.138L118.917 72.4617H103.929L116.533 23.8554H112.776L115.16 10.4214H141.055L157.335 72.4617ZM136.692 49.8683L130.632 25.158L124.491 49.8683H136.692Z" fill="#BF35D3"/>
<path d="M198.783 17.8304C200.076 17.8304 201.288 18.0747 202.419 18.5632C203.55 19.0517 204.52 19.7438 205.368 20.5986C206.176 21.4535 206.863 22.4712 207.348 23.6111C207.832 24.7509 208.075 25.9722 208.075 27.2749V45.9602C208.075 47.2629 207.832 48.4842 207.348 49.624C206.863 50.7639 206.217 51.7409 205.368 52.5958C204.52 53.4507 203.55 54.102 202.419 54.5905C201.288 55.079 200.076 55.3233 198.783 55.3233H179.312V72.4617H164.162L164.081 31.2644H160.122L162.587 17.8304H198.783ZM192.885 31.2644H179.19V42.0929H192.885V31.2644Z" fill="#BF35D3"/>
<path d="M249.321 17.9119C250.614 17.9119 251.826 18.1561 252.957 18.6446C254.088 19.1331 255.098 19.7845 255.946 20.6394C256.795 21.4535 257.482 22.4713 257.966 23.6111C258.451 24.751 258.694 25.9722 258.694 27.2749V63.0172C258.694 64.3199 258.451 65.5412 257.966 66.7217C257.482 67.9023 256.795 68.8793 255.946 69.7342C255.098 70.5484 254.088 71.2404 252.957 71.7289C251.826 72.2174 250.614 72.4617 249.321 72.4617H223.83C222.537 72.4617 221.325 72.2174 220.194 71.7289C219.063 71.2404 218.094 70.5891 217.245 69.7342C216.437 68.92 215.751 67.9023 215.266 66.7217C214.781 65.5412 214.539 64.3199 214.539 63.0172V27.2749C214.539 25.9722 214.781 24.751 215.266 23.6111C215.751 22.4713 216.397 21.4943 217.245 20.6394C218.053 19.8252 219.063 19.1331 220.194 18.6446C221.325 18.1561 222.537 17.9119 223.83 17.9119H249.321V17.9119ZM243.504 31.3458H229.728V59.2313H243.504V31.3458Z" fill="#BF35D3"/>
<path d="M308.019 59.0278L305.636 72.4617H266.288V17.8304H281.438V59.0278H308.019Z" fill="#BF35D3"/>
<path d="M355.528 59.0278L353.144 72.4617H313.837V17.8304H328.986V59.0278H355.528Z" fill="#BF35D3"/>
<path d="M395.602 17.9119C396.895 17.9119 398.107 18.1561 399.238 18.6446C400.369 19.1331 401.379 19.7845 402.228 20.6394C403.076 21.4535 403.763 22.4713 404.247 23.6111C404.732 24.751 404.975 25.9722 404.975 27.2749V63.0172C404.975 64.3199 404.732 65.5412 404.247 66.7217C403.763 67.9023 403.076 68.8793 402.228 69.7342C401.379 70.5484 400.369 71.2404 399.238 71.7289C398.107 72.2174 396.895 72.4617 395.602 72.4617H370.111C368.818 72.4617 367.607 72.2174 366.475 71.7289C365.344 71.2404 364.375 70.5891 363.526 69.7342C362.718 68.92 362.032 67.9023 361.547 66.7217C361.062 65.5412 360.82 64.3199 360.82 63.0172V27.2749C360.82 25.9722 361.062 24.751 361.547 23.6111C362.032 22.4713 362.678 21.4943 363.526 20.6394C364.334 19.8252 365.344 19.1331 366.475 18.6446C367.607 18.1561 368.818 17.9119 370.111 17.9119H395.602V17.9119ZM389.785 31.3458H376.009V59.2313H389.785V31.3458Z" fill="#BF35D3"/>
</g>
<defs>
<linearGradient id="paint0_linear" x1="72.1073" y1="69.0113" x2="72.1073" y2="15.8605" gradientUnits="userSpaceOnUse">
<stop stop-color="#FF3BFF"/>
<stop offset="1" stop-color="#2B1DE3"/>
</linearGradient>
<linearGradient id="paint1_linear" x1="12.372" y1="69.1885" x2="12.372" y2="16.0376" gradientUnits="userSpaceOnUse">
<stop stop-color="#FF3BFF"/>
<stop offset="1" stop-color="#2B1DE3"/>
</linearGradient>
<linearGradient id="paint2_linear" x1="41.1825" y1="24.8019" x2="41.1825" y2="0" gradientUnits="userSpaceOnUse">
<stop stop-color="#FF3BFF"/>
<stop offset="1" stop-color="#2B1DE3"/>
</linearGradient>
<linearGradient id="paint3_linear" x1="41.3583" y1="60.1949" x2="41.3583" y2="84.9968" gradientUnits="userSpaceOnUse">
<stop stop-color="#FF3BFF"/>
<stop offset="1" stop-color="#2B1DE3"/>
</linearGradient>
<linearGradient id="paint4_linear" x1="42.4706" y1="74.4465" x2="42.4706" y2="7.84605" gradientUnits="userSpaceOnUse">
<stop stop-color="#FF3BFF"/>
<stop offset="1" stop-color="#9F1DE3"/>
</linearGradient>
<clipPath id="clip0">
<rect width="404.868" height="85" fill="white" transform="translate(0.0657959)"/>
</clipPath>
</defs>
</svg>
