<svg id="Layer_1" data-name="Layer 1" xmlns="http://www.w3.org/2000/svg" xmlns:xlink="http://www.w3.org/1999/xlink" viewBox="0 0 1010.84 224.11"><defs><style>.cls-1{fill:url(#linear-gradient);}.cls-2{fill:url(#linear-gradient-2);}.cls-3{fill:url(#linear-gradient-3);}.cls-4{fill:url(#linear-gradient-4);}.cls-5{fill:url(#linear-gradient-5);}.cls-6{fill:lime;}.cls-7{font-size:227.41px;fill:#bf35d3;font-family:GovernmentAgentBB, Government Agent BB;}</style><linearGradient id="linear-gradient" x1="725.54" y1="426.84" x2="725.54" y2="296.28" gradientUnits="userSpaceOnUse"><stop offset="0" stop-color="#ff3bff"/><stop offset="1" stop-color="#2b1de3"/></linearGradient><linearGradient id="linear-gradient-2" x1="577.67" y1="427.28" x2="577.67" y2="296.71" xlink:href="#linear-gradient"/><linearGradient id="linear-gradient-3" x1="648.99" y1="318.24" x2="648.99" y2="257.32" xlink:href="#linear-gradient"/><linearGradient id="linear-gradient-4" x1="649.42" y1="405.18" x2="649.42" y2="466.11" xlink:href="#linear-gradient"/><linearGradient id="linear-gradient-5" x1="652.18" y1="440.19" x2="652.18" y2="276.59" gradientUnits="userSpaceOnUse"><stop offset="0" stop-color="#ff3bff"/><stop offset="1" stop-color="#9f1de3"/></linearGradient></defs><title>Logo of Apollo</title><path class="cls-1" d="M732.79,296.28,695.07,361.6h.61l37.66,65.24a104.38,104.38,0,0,0-.55-130.56Z" transform="translate(-547.21 -242)"/><path class="cls-2" d="M608.13,361.6h-.6l-37.46-64.89a104.39,104.39,0,0,0,.15,130.57Z" transform="translate(-547.21 -242)"/><path class="cls-3" d="M649.33,257.32a104,104,0,0,0-65.62,23.21L649,318.24v-.6L714.27,280a103.9,103.9,0,0,0-64.94-22.66" transform="translate(-547.21 -242)"/><path class="cls-4" d="M649,405.18v.61l-64.89,37.46a104.37,104.37,0,0,0,130.56-.15Z" transform="translate(-547.21 -242)"/><path class="cls-5" d="M652.18,276.59a81.8,81.8,0,1,1-81.81,81.8,81.8,81.8,0,0,1,81.81-81.8" transform="translate(-547.21 -242)"/><path class="cls-6" d="M726.57,317" transform="translate(-547.21 -242)"/><text class="cls-7" transform="translate(254.26 193.3)">Apollo</text></svg>