<svg width="130" height="83" viewBox="0 0 130 83" fill="none" xmlns="http://www.w3.org/2000/svg">
<g clip-path="url(#clip0)">
<path d="M6.04428 11.7088C-1.97533 22.8985 -2.01645 63.4468 6.00316 74.6942C13.9405 85.7686 116.098 85.7686 123.994 74.6942C132.014 63.4468 131.973 22.8985 123.953 11.7088C115.851 0.403743 14.1462 0.403743 6.04428 11.7088Z" fill="black" fill-opacity="0.2"/>
<path d="M6.04428 8.47881C-1.97533 19.6685 -2.01645 60.2168 6.00316 71.4642C13.9405 82.5386 116.098 82.5386 123.994 71.4642C132.014 60.2745 131.973 19.6685 123.953 8.47881C115.851 -2.82627 14.1462 -2.82627 6.04428 8.47881Z" fill="white"/>
<path d="M8.10187 9.45935C0.822523 19.6108 0.822523 56.3523 8.06074 66.5038C15.2578 76.54 114.742 76.54 121.898 66.5038C129.177 56.3523 129.136 19.6108 121.857 9.45935C114.537 -0.807497 15.4635 -0.807497 8.10187 9.45935Z" fill="#A5E24D"/>
<path d="M121.939 58.8325C114.742 68.8687 15.2579 68.8687 8.10192 58.8325C4.85295 54.3336 3.04339 44.5281 2.71438 34.2036C2.262 47.1237 4.07155 60.909 8.10192 66.5038C15.299 76.54 114.783 76.54 121.939 66.5038C125.97 60.8513 127.738 47.066 127.327 34.2036C126.957 44.5281 125.147 54.3336 121.939 58.8325Z" fill="#82C822"/>
<path d="M5.79883 54.1605C6.45685 56.0639 7.23825 57.6213 8.1019 58.8325C15.299 68.8687 114.783 68.8687 121.939 58.8325C124.695 54.968 126.422 47.1814 127.08 38.5295C113.591 52.4302 23.9355 57.5059 5.79883 54.1605Z" fill="#94DD2F"/>
<path d="M8.10188 9.45936C5.92219 12.5163 4.40052 17.9382 3.53687 24.3405C16.1215 5.94094 115.153 3.05699 125.846 20.4184C124.941 15.7464 123.625 11.8819 121.898 9.45936C114.537 -0.807497 15.4635 -0.807497 8.10188 9.45936Z" fill="#C0EB85"/>
<path d="M13.8596 6.97914C10.7751 8.1904 8.26642 11.1897 8.26642 13.6699C8.26642 16.1501 10.7751 17.1306 13.8596 15.9194C16.9441 14.7081 19.4528 11.7088 19.4528 9.22862C19.4528 6.74843 16.9441 5.76788 13.8596 6.97914Z" fill="#E1F6C6"/>
<path d="M23.1129 4.84503C21.3856 5.01807 19.7817 6.17165 19.5761 7.49826C19.3705 8.82488 20.6042 9.74774 22.3727 9.57471C24.1 9.40167 25.7039 8.24809 25.8684 6.92147C26.1152 5.65254 24.8402 4.72967 23.1129 4.84503Z" fill="#E1F6C6"/>
<path d="M118.238 53.2953C116.305 54.622 114.866 57.0445 115.071 58.6595C115.277 60.2745 117.045 60.5629 118.978 59.2363C120.911 57.9097 122.351 55.4871 122.145 53.8721C121.939 52.2571 120.171 51.9687 118.238 53.2953Z" fill="#E1F6C6"/>
<path d="M127.08 38.5295C126.422 47.1814 124.695 54.968 121.939 58.8325C114.742 68.8687 15.2578 68.8687 8.10188 58.8325C7.23823 57.6213 6.45684 56.0063 5.79882 54.1605C3.98926 49.0271 2.96111 41.7596 2.71435 34.2036C2.67322 35.7033 2.6321 37.2029 2.67322 38.7602C2.67322 37.722 2.71435 36.6838 2.71435 35.6456C3.08449 45.9701 4.85291 55.7755 8.10188 60.2745C15.299 70.3106 114.783 70.3106 121.939 60.2745C125.188 55.7755 126.957 45.9701 127.327 35.6456C127.368 36.6838 127.368 37.722 127.409 38.7602C127.409 37.2606 127.409 35.7033 127.327 34.2036C127.245 35.6456 127.162 37.0876 127.08 38.5295Z" fill="#C0EB85"/>
<path d="M123.997 69.7338C116.059 80.8082 13.9018 80.8082 6.00555 69.7338C2.09856 64.2543 0.0833766 51.7957 0.00112414 39.164C-0.0811283 52.3725 1.89293 65.754 6.00555 71.4642C13.9429 82.5386 116.1 82.5386 123.997 71.4642C128.068 65.754 130.083 52.3725 130.001 39.164C129.919 51.7957 127.904 64.2543 123.997 69.7338Z" fill="#E6E6E6"/>
<path d="M64.8515 37.2773C64.8515 38.668 64.6875 39.8672 64.3593 40.875C64.039 41.8828 63.5937 42.7109 63.0234 43.3594C62.4609 44.0078 61.7968 44.4883 61.0312 44.8008C60.2734 45.1133 59.4609 45.2695 58.5937 45.2695C56.5781 45.2695 55.0625 44.6016 54.0468 43.2656C53.0312 41.9219 52.5234 39.9727 52.5234 37.418C52.5234 36.0273 52.6836 34.8281 53.0039 33.8203C53.332 32.8125 53.7773 31.9844 54.3398 31.3359C54.9101 30.6875 55.5742 30.207 56.332 29.8945C57.0976 29.582 57.914 29.4258 58.7812 29.4258C60.7968 29.4258 62.3125 30.0938 63.3281 31.4297C64.3437 32.7656 64.8515 34.7148 64.8515 37.2773ZM61.8046 37.418C61.8046 35.6055 61.5625 34.2539 61.0781 33.3633C60.5937 32.4727 59.7968 32.0273 58.6875 32.0273C58.1328 32.0273 57.6601 32.1445 57.2695 32.3789C56.8789 32.6055 56.5546 32.9414 56.2968 33.3867C56.0468 33.832 55.8632 34.3828 55.7461 35.0391C55.6289 35.6875 55.5703 36.4336 55.5703 37.2773C55.5703 39.0898 55.8125 40.4414 56.2968 41.332C56.789 42.2227 57.5859 42.668 58.6875 42.668C59.2421 42.668 59.7148 42.5547 60.1054 42.3281C60.5039 42.0938 60.8281 41.7539 61.0781 41.3086C61.3281 40.8633 61.5117 40.3164 61.6289 39.668C61.7461 39.0117 61.8046 38.2617 61.8046 37.418ZM74.332 45L69.7265 37.5938V45H66.7968V29.6836H69.7265V36.6562L74.3086 29.6836H77.789L72.5859 36.9844L78.0586 45H74.332Z" fill="white"/>
</g>
<defs>
<clipPath id="clip0">
<rect width="130" height="83" fill="white"/>
</clipPath>
</defs>
</svg>
