<svg width="228" height="83" viewBox="0 0 228 83" fill="none" xmlns="http://www.w3.org/2000/svg">
<g clip-path="url(#clip0)">
<path d="M10.6021 11.7088C-3.46307 22.8985 -3.5352 63.4468 10.53 74.6942C24.4509 85.7686 203.619 85.7686 217.468 74.6942C231.533 63.4468 231.461 22.8985 217.396 11.7088C203.187 0.403743 24.8115 0.403743 10.6021 11.7088Z" fill="black" fill-opacity="0.2"/>
<path d="M10.6021 8.47881C-3.46307 19.6685 -3.5352 60.2168 10.53 71.4642C24.4509 82.5386 203.619 82.5386 217.468 71.4642C231.533 60.2745 231.461 19.6685 217.396 8.47881C203.187 -2.82627 24.8115 -2.82627 10.6021 8.47881Z" fill="white"/>
<path d="M14.2094 9.45935C1.44257 19.6108 1.44257 56.3523 14.1373 66.5038C26.7599 76.54 201.24 76.54 213.791 66.5038C226.557 56.3523 226.485 19.6108 213.718 9.45935C200.879 -0.807497 27.1205 -0.807497 14.2094 9.45935Z" fill="#A5E24D"/>
<path d="M213.863 58.8325C201.24 68.8687 26.7599 68.8687 14.2094 58.8325C8.51122 54.3336 5.33754 44.5281 4.7605 34.2036C3.96708 47.1237 7.14076 60.909 14.2094 66.5038C26.832 76.54 201.312 76.54 213.863 66.5038C220.931 60.8513 224.033 47.066 223.312 34.2036C222.662 44.5281 219.489 54.3336 213.863 58.8325Z" fill="#82C822"/>
<path d="M10.1702 54.1605C11.3243 56.0639 12.6947 57.6213 14.2094 58.8325C26.832 68.8687 201.312 68.8687 213.863 58.8325C218.695 54.968 221.725 47.1814 222.879 38.5295C199.22 52.4302 41.9791 57.5059 10.1702 54.1605Z" fill="#94DD2F"/>
<path d="M14.2094 9.45936C10.3866 12.5163 7.7178 17.9382 6.20309 24.3405C28.2746 5.94094 201.961 3.05699 220.715 20.4184C219.128 15.7464 216.82 11.8819 213.791 9.45936C200.879 -0.807497 27.1205 -0.807497 14.2094 9.45936Z" fill="#C0EB85"/>
<path d="M24.3075 6.97914C18.8978 8.1904 14.4979 11.1897 14.4979 13.6699C14.4979 16.1501 18.8978 17.1306 24.3075 15.9194C29.7172 14.7081 34.117 11.7088 34.117 9.22862C34.117 6.74843 29.7172 5.76788 24.3075 6.97914Z" fill="#E1F6C6"/>
<path d="M40.5365 4.84503C37.5071 5.01807 34.6941 6.17165 34.3334 7.49826C33.9728 8.82488 36.1367 9.74774 39.2382 9.57471C42.2676 9.40167 45.0807 8.24809 45.3692 6.92147C45.802 5.65254 43.566 4.72967 40.5365 4.84503Z" fill="#E1F6C6"/>
<path d="M207.371 53.2954C203.981 54.622 201.457 57.0445 201.817 58.6595C202.178 60.2745 205.279 60.5629 208.669 59.2363C212.059 57.9097 214.584 55.4872 214.223 53.8722C213.863 52.2571 210.761 51.9688 207.371 53.2954Z" fill="#E1F6C6"/>
<path d="M222.879 38.5295C221.725 47.1814 218.695 54.968 213.863 58.8325C201.24 68.8687 26.7599 68.8687 14.2094 58.8325C12.6947 57.6213 11.3243 56.0063 10.1702 54.1605C6.99652 49.0271 5.19329 41.7596 4.76051 34.2036C4.68839 35.7033 4.61626 37.2029 4.68839 38.7602C4.68839 37.722 4.76051 36.6838 4.76051 35.6456C5.40968 45.9701 8.51123 55.7755 14.2094 60.2745C26.832 70.3106 201.312 70.3106 213.863 60.2745C219.561 55.7755 222.662 45.9701 223.312 35.6456C223.384 36.6838 223.384 37.722 223.456 38.7602C223.456 37.2606 223.456 35.7033 223.312 34.2036C223.167 35.6456 223.023 37.0876 222.879 38.5295Z" fill="#C0EB85"/>
<path d="M217.47 69.7338C203.549 80.8082 24.3805 80.8082 10.5317 69.7338C3.67943 64.2543 0.145106 51.7957 0.000847586 39.164C-0.143411 52.3725 3.31878 65.754 10.5317 71.4642C24.4526 82.5386 203.621 82.5386 217.47 71.4642C224.611 65.754 228.145 52.3725 228.001 39.164C227.857 51.7957 224.322 64.2543 217.47 69.7338Z" fill="#E6E6E6"/>
<path d="M37.6367 45V29.6836H40.5664V42.5273H47.0352V45H37.6367ZM50.6797 45V29.6836H59.9023V32.1211H53.6094V35.9297H59.6094V38.3086H53.6094V42.5625H59.9023V45H50.6797ZM69.793 32.0859V45H66.8398V32.0859H62.6445V29.6836H73.9883V32.0859H69.793ZM77.3867 34.8516C77.8555 34.8672 78.293 34.8398 78.6992 34.7695C79.1055 34.6992 79.457 34.5898 79.7539 34.4414C80.0586 34.293 80.2969 34.1016 80.4688 33.8672C80.6406 33.6328 80.7266 33.3516 80.7266 33.0234C80.7266 32.7969 80.6914 32.6055 80.6211 32.4492C80.5586 32.2852 80.4766 32.1406 80.375 32.0156C80.2734 31.8828 80.1641 31.7578 80.0469 31.6406C79.9375 31.5156 79.832 31.3867 79.7305 31.2539C79.6289 31.1133 79.543 30.957 79.4727 30.7852C79.4102 30.6055 79.3789 30.3906 79.3789 30.1406C79.3789 29.8984 79.4219 29.6641 79.5078 29.4375C79.5938 29.2031 79.7188 28.9961 79.8828 28.8164C80.0469 28.6367 80.2461 28.4922 80.4805 28.3828C80.7227 28.2734 80.9961 28.2188 81.3008 28.2188C81.6836 28.2188 82.0273 28.3086 82.332 28.4883C82.6367 28.668 82.8945 28.9062 83.1055 29.2031C83.3164 29.5 83.4766 29.8438 83.5859 30.2344C83.6953 30.6172 83.75 31.0195 83.75 31.4414C83.75 32.168 83.6172 32.8516 83.3516 33.4922C83.0859 34.1328 82.6875 34.6914 82.1562 35.168C81.625 35.6445 80.9609 36.0234 80.1641 36.3047C79.375 36.5781 78.4492 36.7148 77.3867 36.7148V34.8516ZM100.062 40.3711C100.062 41.207 99.9062 41.9336 99.5938 42.5508C99.2891 43.168 98.8594 43.6797 98.3047 44.0859C97.75 44.4844 97.0898 44.7812 96.3242 44.9766C95.5586 45.1719 94.7227 45.2695 93.8164 45.2695C93.0117 45.2695 92.2344 45.2227 91.4844 45.1289C90.7344 45.0352 89.9922 44.8789 89.2578 44.6602V41.8125C89.6172 41.9375 89.9922 42.0547 90.3828 42.1641C90.7734 42.2734 91.1641 42.3711 91.5547 42.457C91.9531 42.5352 92.3477 42.5977 92.7383 42.6445C93.1289 42.6914 93.5078 42.7148 93.875 42.7148C94.4219 42.7148 94.8867 42.668 95.2695 42.5742C95.6523 42.4805 95.9648 42.3516 96.207 42.1875C96.4492 42.0234 96.625 41.8281 96.7344 41.6016C96.8438 41.375 96.8984 41.125 96.8984 40.8516C96.8984 40.4766 96.7891 40.1641 96.5703 39.9141C96.3594 39.6562 96.0781 39.4297 95.7266 39.2344C95.375 39.0391 94.9727 38.8633 94.5195 38.707C94.0742 38.5508 93.6172 38.3828 93.1484 38.2031C92.6875 38.0234 92.2305 37.8203 91.7773 37.5938C91.332 37.3672 90.9336 37.0859 90.582 36.75C90.2305 36.4141 89.9453 36.0156 89.7266 35.5547C89.5156 35.0859 89.4102 34.5234 89.4102 33.8672C89.4102 33.2656 89.5195 32.6953 89.7383 32.1562C89.957 31.6172 90.3008 31.1484 90.7695 30.75C91.2383 30.3438 91.8398 30.0234 92.5742 29.7891C93.3086 29.5469 94.1953 29.4258 95.2344 29.4258C95.5391 29.4258 95.8555 29.4414 96.1836 29.4727C96.5195 29.4961 96.8477 29.5312 97.168 29.5781C97.4961 29.6172 97.8086 29.668 98.1055 29.7305C98.4102 29.7852 98.6875 29.8438 98.9375 29.9062V32.543C98.6875 32.4492 98.4141 32.3633 98.1172 32.2852C97.8203 32.207 97.5117 32.1406 97.1914 32.0859C96.8789 32.0234 96.5625 31.9766 96.2422 31.9453C95.9219 31.9141 95.6172 31.8984 95.3281 31.8984C94.8203 31.8984 94.3906 31.9414 94.0391 32.0273C93.6875 32.1055 93.3984 32.2188 93.1719 32.3672C92.9453 32.5078 92.7812 32.6836 92.6797 32.8945C92.5781 33.1055 92.5273 33.3398 92.5273 33.5977C92.5273 33.918 92.6328 34.1953 92.8438 34.4297C93.0625 34.6562 93.3477 34.8633 93.6992 35.0508C94.0586 35.2305 94.4609 35.4023 94.9062 35.5664C95.3594 35.7227 95.8203 35.8945 96.2891 36.082C96.7656 36.2617 97.2266 36.4688 97.6719 36.7031C98.125 36.9375 98.5273 37.2227 98.8789 37.5586C99.2383 37.8945 99.5234 38.293 99.7344 38.7539C99.9531 39.207 100.062 39.7461 100.062 40.3711ZM126.453 40.3711C126.453 41.207 126.297 41.9336 125.984 42.5508C125.68 43.168 125.25 43.6797 124.695 44.0859C124.141 44.4844 123.48 44.7812 122.715 44.9766C121.949 45.1719 121.113 45.2695 120.207 45.2695C119.402 45.2695 118.625 45.2227 117.875 45.1289C117.125 45.0352 116.383 44.8789 115.648 44.6602V41.8125C116.008 41.9375 116.383 42.0547 116.773 42.1641C117.164 42.2734 117.555 42.3711 117.945 42.457C118.344 42.5352 118.738 42.5977 119.129 42.6445C119.52 42.6914 119.898 42.7148 120.266 42.7148C120.812 42.7148 121.277 42.668 121.66 42.5742C122.043 42.4805 122.355 42.3516 122.598 42.1875C122.84 42.0234 123.016 41.8281 123.125 41.6016C123.234 41.375 123.289 41.125 123.289 40.8516C123.289 40.4766 123.18 40.1641 122.961 39.9141C122.75 39.6562 122.469 39.4297 122.117 39.2344C121.766 39.0391 121.363 38.8633 120.91 38.707C120.465 38.5508 120.008 38.3828 119.539 38.2031C119.078 38.0234 118.621 37.8203 118.168 37.5938C117.723 37.3672 117.324 37.0859 116.973 36.75C116.621 36.4141 116.336 36.0156 116.117 35.5547C115.906 35.0859 115.801 34.5234 115.801 33.8672C115.801 33.2656 115.91 32.6953 116.129 32.1562C116.348 31.6172 116.691 31.1484 117.16 30.75C117.629 30.3438 118.23 30.0234 118.965 29.7891C119.699 29.5469 120.586 29.4258 121.625 29.4258C121.93 29.4258 122.246 29.4414 122.574 29.4727C122.91 29.4961 123.238 29.5312 123.559 29.5781C123.887 29.6172 124.199 29.668 124.496 29.7305C124.801 29.7852 125.078 29.8438 125.328 29.9062V32.543C125.078 32.4492 124.805 32.3633 124.508 32.2852C124.211 32.207 123.902 32.1406 123.582 32.0859C123.27 32.0234 122.953 31.9766 122.633 31.9453C122.312 31.9141 122.008 31.8984 121.719 31.8984C121.211 31.8984 120.781 31.9414 120.43 32.0273C120.078 32.1055 119.789 32.2188 119.562 32.3672C119.336 32.5078 119.172 32.6836 119.07 32.8945C118.969 33.1055 118.918 33.3398 118.918 33.5977C118.918 33.918 119.023 34.1953 119.234 34.4297C119.453 34.6562 119.738 34.8633 120.09 35.0508C120.449 35.2305 120.852 35.4023 121.297 35.5664C121.75 35.7227 122.211 35.8945 122.68 36.082C123.156 36.2617 123.617 36.4688 124.062 36.7031C124.516 36.9375 124.918 37.2227 125.27 37.5586C125.629 37.8945 125.914 38.293 126.125 38.7539C126.344 39.207 126.453 39.7461 126.453 40.3711ZM135.77 32.0859V45H132.816V32.0859H128.621V29.6836H139.965V32.0859H135.77ZM150.852 45L150.008 41.9766H144.664L143.797 45H140.938L145.473 29.6836H149.504L154.039 45H150.852ZM147.371 32.4961L145.355 39.6211H149.363L147.371 32.4961ZM163.32 45L161.164 40.0781C160.961 39.6094 160.676 39.2578 160.309 39.0234C159.949 38.7812 159.523 38.6602 159.031 38.6602H158.48V45H155.598V29.6836H160.062C160.906 29.6836 161.672 29.7578 162.359 29.9062C163.047 30.0469 163.633 30.2852 164.117 30.6211C164.602 30.957 164.973 31.3945 165.23 31.9336C165.496 32.4727 165.629 33.1328 165.629 33.9141C165.629 34.4766 165.547 34.9766 165.383 35.4141C165.219 35.8516 164.988 36.2305 164.691 36.5508C164.395 36.8633 164.039 37.1172 163.625 37.3125C163.219 37.5078 162.773 37.6445 162.289 37.7227C162.664 37.8008 163.008 38.0156 163.32 38.3672C163.633 38.7109 163.945 39.2109 164.258 39.8672L166.707 45H163.32ZM162.605 34.1953C162.605 33.4453 162.367 32.9062 161.891 32.5781C161.414 32.25 160.699 32.0859 159.746 32.0859H158.48V36.4102H159.652C160.098 36.4102 160.5 36.3633 160.859 36.2695C161.227 36.1758 161.539 36.0352 161.797 35.8477C162.055 35.6602 162.254 35.4297 162.395 35.1562C162.535 34.875 162.605 34.5547 162.605 34.1953ZM175.355 32.0859V45H172.402V32.0859H168.207V29.6836H179.551V32.0859H175.355ZM188.305 40.2422H185.855L185.422 28.4414H188.738L188.305 40.2422ZM187.074 41.6133C187.324 41.6133 187.559 41.6602 187.777 41.7539C188.004 41.8477 188.199 41.9766 188.363 42.1406C188.527 42.3047 188.656 42.5 188.75 42.7266C188.852 42.9453 188.902 43.1836 188.902 43.4414C188.902 43.6992 188.852 43.9414 188.75 44.168C188.656 44.3867 188.527 44.5781 188.363 44.7422C188.199 44.9062 188.004 45.0352 187.777 45.1289C187.559 45.2227 187.324 45.2695 187.074 45.2695C186.824 45.2695 186.586 45.2227 186.359 45.1289C186.141 45.0352 185.949 44.9062 185.785 44.7422C185.621 44.5781 185.492 44.3867 185.398 44.168C185.305 43.9414 185.258 43.6992 185.258 43.4414C185.258 43.1836 185.305 42.9453 185.398 42.7266C185.492 42.5 185.621 42.3047 185.785 42.1406C185.949 41.9766 186.141 41.8477 186.359 41.7539C186.586 41.6602 186.824 41.6133 187.074 41.6133Z" fill="white"/>
</g>
<defs>
<clipPath id="clip0">
<rect width="228" height="83" fill="white"/>
</clipPath>
</defs>
</svg>
